# xmcd CD database file
#
# Track frame offsets:
#	150
#	17600
#	28730
#	47460
#
# Disc length: 862 seconds
#
# Revision: 0
# Processed by: cddbd v1.5.2PL0 Copyright (c) Steve Scherf et al.
# Submitted via: CDex 1.70beta2
#
DISCID=24035c04
DTITLE=David Arkenstone - In The Wake Of The Wind - Radio Edit
DYEAR=1900
DGENRE=New Age
TTITLE0=Papillon
TTITLE1=The Festival
TTITLE2=Not Too Far To Walk
TTITLE3=Borderlands
EXTD=
EXTT0=
EXTT1=
EXTT2=
EXTT3=
PLAYORDER=
